<svg version="1.2" baseProfile="tiny-ps" xmlns="http://www.w3.org/2000/svg" viewBox="0 0 19 19" width="19" height="19">
	<title>bnner+header</title>
	<style>
		tspan { white-space:pre }
		.shp0 { fill: #b99403 } 
	</style>
	<g id="bnner+header">
		<g id="main_nav">
			<path id="Shape 6" class="shp0" d="M13.96 1.58C13 2.53 13 4.08 13.96 5.03C14.91 5.99 16.46 5.99 17.42 5.03L18.82 3.63C18.92 4.04 19 4.45 19 4.88C19 7.58 16.81 9.77 14.11 9.77C13.67 9.77 13.25 9.69 12.84 9.58C12.83 9.6 12.82 9.61 12.81 9.63L4.16 18.26C3.2 19.22 1.65 19.22 0.7 18.26C-0.26 17.31 -0.26 15.76 0.7 14.81L9.35 6.18C9.36 6.16 9.38 6.16 9.4 6.14C9.29 5.74 9.21 5.32 9.21 4.88C9.21 2.19 11.4 0 14.11 0C14.54 0 14.96 0.07 15.36 0.18L13.96 1.58ZM2.48 15.87C2.15 15.87 1.87 16.14 1.87 16.48C1.87 16.82 2.15 17.09 2.48 17.09C2.82 17.09 3.1 16.82 3.1 16.48C3.1 16.14 2.82 15.87 2.48 15.87Z" />
		</g>
	</g>
</svg>