<svg version="1.2" baseProfile="tiny-ps" xmlns="http://www.w3.org/2000/svg" viewBox="0 0 24 18" width="24" height="18">
	<title>bnner+header</title>
	<style>
		tspan { white-space:pre }
		.shp0 { fill: #b99403 } 
	</style>
	<g id="bnner+header">
		<g id="main_nav">
			<path id="Shape 7" class="shp0" d="M23.74 17.3L15.46 9.02L21.58 2.9L23.76 0.73C23.9 0.96 24 1.21 24 1.5L24 16.5C24 16.8 23.89 17.06 23.74 17.3ZM21.05 2.37L18.26 5.16L12.91 10.51L11.98 11.45L2.95 2.41L1.45 0.91L0.76 0.23C0.98 0.1 1.22 0 1.5 0L22.5 0C22.76 0 23 0.09 23.22 0.21L22.46 0.96L21.05 2.37ZM0.91 1.45L8.47 9L0.23 17.24C0.1 17.02 0 16.78 0 16.5L0 1.5C0 1.22 0.1 0.98 0.23 0.76L0.91 1.45L0.91 1.45ZM9 9.53L9.32 9.85L9.43 9.96L10.46 10.99L11.96 12.49L12.02 12.43L12.04 12.44L13.45 11.04L14.93 9.55L23.19 17.81C22.98 17.92 22.75 18 22.5 18L1.5 18C1.22 18 0.98 17.9 0.76 17.77L9 9.53Z" />
		</g>
	</g>
</svg>